<svg width="124" height="54" viewBox="0 0 124 54" fill="none" xmlns="http://www.w3.org/2000/svg">
<path d="M65.7315 8.25291C64.2963 6.77506 62.4986 6.03613 60.3364 6.03613H50.3488V28.6952H54.1694V21.1511H60.3364C62.519 21.1511 64.3229 20.4287 65.7479 18.9839C67.1689 17.539 67.8794 15.7475 67.8794 13.6112C67.8794 11.4749 67.1627 9.73283 65.7315 8.25498V8.25291ZM62.6542 17.2831C61.7082 18.2388 60.3999 18.8291 58.9564 18.8291H54.1674V8.27975H58.9564C61.4646 8.27975 63.5612 10.059 64.071 12.4367C64.0833 12.4966 64.0977 12.5585 64.1058 12.6184C64.1407 12.7917 64.1611 12.9651 64.1734 13.1488C64.1734 13.1777 64.1775 13.2087 64.1775 13.2396C64.1837 13.3428 64.1877 13.4481 64.1877 13.5513C64.1877 15.0085 63.6022 16.3295 62.6542 17.281V17.2831Z" fill="white"/>
<path d="M92.1234 11.5375H88.4297V28.696H92.1234V11.5375Z" fill="white"/>
<path d="M90.2642 9.03467C90.8559 9.03467 91.3637 8.83239 91.7855 8.42784C92.1868 8.04186 92.3874 7.55062 92.3874 6.95205C92.3874 6.35348 92.1827 5.85811 91.7711 5.46181C91.3596 5.06552 90.8559 4.86737 90.2642 4.86737C89.6725 4.86737 89.1626 5.06965 88.7429 5.47626C88.3211 5.88081 88.1102 6.37206 88.1102 6.95205C88.1102 7.53205 88.3211 8.04599 88.7429 8.44022C89.1626 8.83652 89.6704 9.03467 90.2642 9.03467Z" fill="white"/>
<path d="M105.938 15.3414C106.728 16.136 107.215 17.2382 107.215 18.4539V19.0092C107.217 19.0649 107.217 19.1206 107.217 19.1784V28.6978H110.911V18.1774C110.911 16.0823 110.209 14.4043 108.808 13.1411C107.406 11.8799 105.729 11.2484 103.784 11.2484C101.554 11.2484 99.7892 12.1008 98.485 13.8057V11.5394H94.7913V28.6978H98.485V18.456C98.485 16.0266 100.438 14.0555 102.85 14.0555C104.056 14.0555 105.147 14.5488 105.938 15.3455V15.3414Z" fill="white"/>
<path d="M51.217 41.8687C51.219 41.8006 51.2231 41.7325 51.2272 41.6644C51.2293 41.6004 51.2334 41.5405 51.2395 41.4807C51.5794 36.9542 54.8144 33.4061 58.7558 33.4061C61.4871 33.4061 63.8765 35.1069 65.2033 37.656H69.0628C68.1414 35.5631 66.7758 33.8788 64.9678 32.6074C63.1579 31.3338 61.1083 30.696 58.8172 30.696C55.6518 30.696 52.9532 31.8313 50.7276 34.0955C48.4979 36.3639 47.3882 39.0905 47.3882 42.2877C47.3882 45.4849 48.5 48.2074 50.7276 50.4613C52.9553 52.7173 55.6518 53.8443 58.8172 53.8443C61.1083 53.8443 63.1579 53.2106 64.9678 51.9495C66.7758 50.6863 68.1292 49.0206 69.03 46.9483H65.1685C63.8376 49.4623 61.4646 51.1342 58.7558 51.1342C54.8472 51.1342 51.6326 47.646 51.2477 43.1794C51.2415 43.1299 51.2395 43.0803 51.2354 43.0308C51.2334 42.9936 51.2293 42.9544 51.2272 42.9152C51.2211 42.8079 51.217 42.7005 51.2129 42.5891C51.2108 42.4838 51.2088 42.3806 51.2088 42.2733C51.2088 42.2072 51.2088 42.1432 51.2108 42.0793C51.2108 42.0111 51.2129 41.943 51.217 41.8728V41.8687Z" fill="white"/>
<path d="M76.8285 37.118C75.8232 37.6629 74.9776 38.5236 74.5435 39.308V36.4906H70.8499V53.649H74.5435V44.9408C74.5435 37.9808 79.8649 39.6857 81.0934 40.0407V36.4679C80.213 36.278 78.5709 36.1768 76.8285 37.1201V37.118Z" fill="white"/>
<path d="M95.3049 36.4893V38.993C94.9589 38.6483 94.5842 38.3346 94.1767 38.0477C92.8643 37.1209 91.3737 36.6585 89.7112 36.6585C87.4098 36.6585 85.4504 37.4821 83.8288 39.1271C82.2113 40.7743 81.4025 42.7578 81.4025 45.0799C81.4025 47.4019 82.2113 49.3793 83.8288 51.0181C85.4504 52.6549 87.4078 53.4723 89.7112 53.4723C91.3737 53.4723 92.8643 53.0141 94.1767 52.0997C94.5842 51.8148 94.9609 51.5011 95.3049 51.1585V53.6436H98.9965V36.4852H95.3049V36.4893ZM95.3233 45.5278C95.3172 45.6083 95.3131 45.6867 95.3049 45.7631V45.7858C94.9998 48.8323 92.7824 51.1956 90.09 51.1956C87.1928 51.1956 84.8382 48.4525 84.8382 45.0716C84.8382 41.6907 87.1907 38.9455 90.09 38.9455C92.7824 38.9455 95.0039 41.3109 95.3069 44.3616C95.3069 44.3801 95.311 44.4008 95.3131 44.4214C95.3172 44.4689 95.3213 44.5184 95.3233 44.5659C95.3336 44.7269 95.3417 44.89 95.3417 45.0551C95.3417 45.2202 95.3336 45.373 95.3254 45.5298L95.3233 45.5278Z" fill="white"/>
<path d="M123.216 14.7756V11.5371H118.409V6.3584L114.781 7.42757V11.5392H111.568V14.7776H114.781V23.9152C114.781 24.4291 114.854 24.9327 114.998 25.4116C115.022 25.4962 115.049 25.5809 115.08 25.6593C115.784 27.6016 117.635 28.9886 119.807 28.9886H120.108C120.591 28.9886 121.066 28.9411 121.523 28.8462C122.117 28.7285 122.682 28.5386 123.214 28.2827C123.214 28.2827 123.214 28.2827 123.218 28.2827V26.1051C122.915 26.2517 122.592 26.3611 122.254 26.4271C121.994 26.4808 121.724 26.5076 121.449 26.5076H121.277C119.697 26.5076 118.415 25.2155 118.415 23.6221V21.7582H118.411V19.2318L118.415 19.2236H118.411V14.7797H123.218L123.216 14.7756Z" fill="white"/>
<path d="M118.409 31.3116L114.781 32.3808V36.4924H111.568H107.303V35.8711C107.303 34.3623 108.452 33.1218 109.918 32.9959C109.979 32.9897 110.041 32.9876 110.102 32.9876C110.125 32.9876 110.145 32.9856 110.168 32.9856C110.147 32.9856 110.125 32.9876 110.104 32.9876C110.157 32.9876 110.213 32.9856 110.276 32.9856C110.313 32.9856 110.35 32.9856 110.389 32.9856C110.481 32.9856 110.571 32.9938 110.661 33C110.794 33.0103 110.927 33.0268 111.056 33.0496C111.107 33.0578 111.161 33.0661 111.214 33.0784C111.214 33.0784 111.218 33.0784 111.22 33.0784C111.259 33.0846 111.296 33.095 111.335 33.1053C111.359 33.1094 111.384 33.1177 111.41 33.1239C111.451 33.1362 111.492 33.1466 111.533 33.1589C111.586 33.1755 111.642 33.192 111.693 33.2126C112.016 33.3261 112.352 33.4954 112.665 33.7451V31.5325C112.539 31.4375 112.35 31.324 112.109 31.2084C112.109 31.2084 112.107 31.2084 112.104 31.2084C112.039 31.1775 111.969 31.1444 111.904 31.1155C111.836 31.0846 111.769 31.0578 111.699 31.0289C111.695 31.0289 111.687 31.0247 111.683 31.0227C111.632 31 111.578 30.9814 111.525 30.9628C111.4 30.9153 111.267 30.872 111.13 30.8266C111.091 30.8142 111.05 30.8018 111.009 30.7894C110.882 30.7523 110.749 30.7172 110.614 30.6862C110.548 30.6718 110.481 30.6573 110.415 30.6449C110.358 30.6326 110.301 30.6222 110.243 30.6119C110.243 30.6119 110.239 30.6119 110.237 30.6119C110.182 30.6016 110.127 30.5933 110.071 30.5851C110.014 30.5748 109.955 30.5665 109.895 30.5603C109.844 30.5541 109.791 30.5479 109.738 30.5417C109.717 30.5417 109.697 30.5376 109.674 30.5376C109.58 30.5273 109.486 30.5211 109.39 30.5149C109.381 30.5149 109.371 30.5149 109.361 30.5149C109.322 30.5149 109.283 30.5149 109.244 30.5108C109.162 30.5108 109.082 30.5067 109.001 30.5067H108.7C106.527 30.5067 104.678 31.8916 103.972 33.836C103.941 33.9165 103.917 33.999 103.89 34.0836C103.747 34.5625 103.673 35.0661 103.673 35.5801V36.4944H100.493V39.7329H103.673L103.738 53.6528H107.399L107.367 39.7329H112.379H114.785V48.8704C114.785 49.3844 114.858 49.888 115.002 50.3669C115.026 50.4515 115.053 50.5361 115.084 50.6145C115.788 52.5568 117.639 53.9438 119.811 53.9438H120.112C120.595 53.9438 121.07 53.8964 121.527 53.8014C122.121 53.6838 122.686 53.4939 123.218 53.2379C123.218 53.2379 123.218 53.2379 123.222 53.2379V51.0604C122.919 51.2069 122.596 51.3163 122.258 51.3824C121.998 51.436 121.728 51.4629 121.453 51.4629H121.281C119.701 51.4629 118.419 50.1708 118.419 48.5773V46.7135H118.415V44.1871L118.419 44.1789H118.415V39.735H123.222V36.4965H118.415V31.3178L118.409 31.3116Z" fill="white"/>
<path d="M82.0633 11.5403V14.044C81.7193 13.6973 81.3426 13.3835 80.9352 13.0966C79.6227 12.1699 78.1322 11.7096 76.4676 11.7096C74.1682 11.7096 72.2088 12.5331 70.5872 14.1782C68.9697 15.8232 68.1609 17.8068 68.1609 20.1288C68.1609 22.4509 68.9697 24.4303 70.5872 26.0671C72.2088 27.708 74.1662 28.5253 76.4676 28.5253C78.1322 28.5253 79.6207 28.0671 80.9352 27.1486C81.3426 26.8617 81.7193 26.548 82.0633 26.2054V28.6925H85.7549V11.5403H82.0633ZM82.0817 20.5767C82.0756 20.6572 82.0715 20.7356 82.0633 20.8141V20.8368C81.7582 23.8833 79.5388 26.2446 76.8484 26.2446C73.9512 26.2446 71.5966 23.5015 71.5966 20.1206C71.5966 16.7397 73.9492 13.9966 76.8484 13.9966C79.5408 13.9966 81.7623 16.3619 82.0654 19.4105C82.0654 19.425 82.0654 19.4394 82.0695 19.4559C82.0756 19.5096 82.0777 19.5653 82.0797 19.6211C82.0899 19.78 82.0981 19.9431 82.0981 20.1041C82.0981 20.265 82.0899 20.4219 82.0817 20.5788V20.5767Z" fill="white"/>
<path d="M20.6448 30.6897V53.9411C20.6448 53.9411 17.7804 53.9411 16.8263 53.9411C8.04462 53.9287 0.937811 49.2826 0.937811 43.5713C0.937811 43.5713 0.933716 24.095 0.933716 23.771V23.7008C0.982855 14.8337 10.0491 12.7077 15.864 12.2598V14.3363C12.2153 14.844 9.08065 16.0019 6.94922 17.5562C6.94512 17.5562 6.94307 17.5603 6.94103 17.5624C5.08191 18.9226 3.98856 20.582 3.98856 22.3736C3.98856 23.5481 4.45948 24.6688 5.30714 25.6823C7.70679 28.5554 13.1367 30.5865 19.5044 30.6938C19.6702 30.6938 20.6407 30.6897 20.6407 30.6897H20.6448Z" fill="white"/>
<path d="M39.1639 21.0275C39.1147 29.8967 30.0485 32.0206 24.2357 32.4705V30.3941C24.246 30.3941 24.2582 30.3941 24.2685 30.39C24.4138 30.3734 24.5572 30.3569 24.7025 30.3384C28.2017 29.7873 31.1951 28.6335 33.2303 27.1081C35.0239 25.7644 36.0763 24.1338 36.0763 22.3753C36.0763 21.399 35.7507 20.4619 35.1549 19.593C32.9703 16.3958 27.1227 14.0964 20.2288 14.0531L19.4569 14.0593V0.787476H23.2755C32.055 0.814308 39.1618 5.44602 39.1618 11.1593L39.1659 21.0295L39.1639 21.0275Z" fill="white"/>
</svg>
