<svg width="91" height="102" viewBox="0 0 91 102" fill="none" xmlns="http://www.w3.org/2000/svg">
<g clip-path="url(#clip0_187_17)">
<path d="M91 0H0V102H91V0Z" fill="white"/>
<path d="M18.3181 61.9575H16.1117V70.225H18.3181C20.8782 70.225 22.533 68.6042 22.533 66.0904C22.533 63.5783 20.8782 61.9558 18.3181 61.9558M17.6286 63.4581H18.2581C20.0102 63.4581 20.9755 64.3895 20.9755 66.0921C20.9755 67.7947 20.0102 68.7261 18.2581 68.7261H17.6286V63.4581Z" fill="#A21F1C"/>
<path d="M25.7437 61.9575H24.2073V70.225H25.7437V61.9575Z" fill="#A21F1C"/>
<path d="M27.1812 63.4581H29.4265V70.2267H30.9434V63.4581H33.1693V61.9575H27.1812V63.4581Z" fill="#A21F1C"/>
<path d="M39.0974 61.9575L37.2463 65.2608L35.3757 61.9575H33.6414L36.4773 66.9434V70.2267H37.9942V66.9434L40.7911 61.9575H39.0974Z" fill="#A21F1C"/>
<path d="M56.7844 65.8484C57.1592 65.4628 57.3555 64.937 57.3555 64.2877C57.3555 62.8688 56.3902 61.9575 54.8732 61.9575H52.0374V70.225H55.0306C56.666 70.225 57.7091 69.2519 57.7091 67.7529C57.7091 66.9217 57.3944 66.254 56.7828 65.8484M54.8148 63.438C55.5043 63.438 55.8385 63.7218 55.8385 64.3294C55.8385 64.937 55.5628 65.2208 54.9333 65.2208H53.5543V63.438H54.8148ZM53.5737 66.6796H54.9527C55.7607 66.6796 56.1938 67.0235 56.1938 67.7129C56.1938 68.4022 55.7996 68.7461 54.9722 68.7461H53.5737V66.6796Z" fill="#A21F1C"/>
<path d="M60.9003 61.9575H59.3639V70.225H60.9003V61.9575Z" fill="#A21F1C"/>
<path d="M68.4054 64.5932C68.4054 63.0124 67.2828 61.9592 65.589 61.9592H63.0289V70.2267H64.5458V67.2071H65.5111L67.3233 70.2267H69.0755L67.0475 66.8833C67.9139 66.4577 68.4071 65.6464 68.4071 64.5932M64.5248 63.4581H65.529C66.4148 63.4581 66.848 63.8437 66.848 64.6132C66.848 65.0989 66.7101 65.7282 65.529 65.7282H64.5248V63.4581Z" fill="#A21F1C"/>
<path d="M71.7328 61.9575H70.1964V70.2267H75.0619V68.7461H71.7328V61.9575Z" fill="#A21F1C"/>
<path d="M8.07617 70.2051H9.57361L10.2437 68.5025H12.7648L13.4348 70.2051H14.9518L11.5253 61.6537L8.07779 70.2051H8.07617ZM10.7953 67.1054L11.5042 65.3026L12.2132 67.1054H10.7953Z" fill="#A21F1C"/>
<path d="M40.2395 70.2267H41.7369L42.3875 68.5242H44.9087L45.5787 70.2267H47.0956L43.6692 61.6754L40.2427 70.2267H40.2395ZM42.9375 67.1454L43.6465 65.3427L44.3554 67.1454H42.9375Z" fill="#A21F1C"/>
<path d="M76.0272 70.205H77.5247L78.1947 68.5024H80.7159L81.3859 70.205H82.9028L79.4764 61.6537L76.0288 70.205H76.0272ZM78.7252 67.1053L79.4342 65.3026L80.1432 67.1053H78.7252Z" fill="#A21F1C"/>
<path d="M30.0657 93.8893V86.478C30.4827 86.4496 30.8396 86.4296 31.1348 86.4146C31.4301 86.4012 31.68 86.3912 31.8844 86.3879C32.0904 86.3845 32.2543 86.3829 32.3776 86.3829C32.96 86.3829 33.4418 86.4246 33.8215 86.5097C34.2011 86.5949 34.5013 86.7317 34.7203 86.922C34.9393 87.1123 35.0902 87.3644 35.1729 87.6782C35.2557 87.992 35.2962 88.3676 35.2962 88.8049C35.2962 89.2422 35.2475 89.6562 35.1518 89.9833C35.0561 90.3105 34.902 90.5776 34.6894 90.7812C34.4769 90.9865 34.2011 91.1368 33.862 91.2353C33.523 91.3337 33.1109 91.3838 32.6242 91.3838H32.2591C32.1521 91.3838 32.0531 91.3838 31.9606 91.3788C31.8682 91.3755 31.7741 91.3721 31.6783 91.3688C31.5826 91.3654 31.4739 91.3604 31.3539 91.3538C31.2338 91.3471 31.1024 91.3437 30.958 91.3437V93.891H30.0641L30.0657 93.8893ZM30.9596 87.1774V90.6026C31.104 90.6026 31.2354 90.6043 31.3555 90.6076C31.4755 90.611 31.5875 90.6143 31.6946 90.6176C31.8 90.621 31.9087 90.6243 32.019 90.6277C32.1277 90.631 32.251 90.6327 32.3889 90.6327C32.7864 90.6327 33.1158 90.5993 33.3753 90.5325C33.6349 90.4657 33.8409 90.3606 33.9918 90.2154C34.1427 90.0701 34.2498 89.8815 34.3163 89.6445C34.3812 89.4091 34.4136 89.122 34.4136 88.7832C34.4136 88.4877 34.3844 88.234 34.326 88.022C34.2676 87.81 34.167 87.6398 34.0227 87.5096C33.8783 87.3794 33.6771 87.2809 33.4159 87.2141C33.1547 87.1474 32.8302 87.114 32.4392 87.114H32.1667C32.0742 87.114 31.9736 87.1173 31.8633 87.124C31.753 87.1307 31.6248 87.1374 31.4772 87.1457C31.3295 87.1524 31.1576 87.1641 30.958 87.1774H30.9596Z" fill="#A21F1C"/>
<path d="M35.1015 93.8894L37.5675 86.4147H38.5636L41.0393 93.8894H40.0627L39.4462 91.9765H36.6411L36.0246 93.8894H35.0999H35.1015ZM36.8277 91.2153H39.2726L38.0493 87.2927L36.826 91.2153H36.8277Z" fill="#A21F1C"/>
<path d="M41.8716 93.8893V86.4897H42.7655V93.8893H41.8716Z" fill="#A21F1C"/>
<path d="M44.2046 93.8894V86.4581H45.0466L48.8381 92.4522V86.4898H49.6493V93.901H48.7959L45.0142 87.9604V93.891H44.203L44.2046 93.8894Z" fill="#A21F1C"/>
<path d="M55.7737 87.3043H53.5543V93.891H52.6701V87.3043H50.4718V86.4897H55.7737V87.3043Z" fill="#A21F1C"/>
<path d="M60.9425 86.7118L60.7575 87.4312C60.6342 87.3895 60.4931 87.3477 60.3357 87.3093C60.1783 87.2709 60.0145 87.2376 59.8425 87.2092C59.6705 87.1808 59.5002 87.1608 59.3282 87.1458C59.1562 87.1324 58.9924 87.1241 58.835 87.1241C58.3142 87.1241 57.8989 87.2276 57.5858 87.4362C57.2743 87.6449 57.1185 87.9353 57.1185 88.3092C57.1185 88.4778 57.1526 88.6297 57.2208 88.7632C57.2889 88.8968 57.4008 89.0253 57.555 89.1488C57.7091 89.2723 57.9151 89.3892 58.1715 89.4977C58.4278 89.6062 58.7409 89.7247 59.1108 89.8515C59.5083 89.9784 59.8441 90.1136 60.1183 90.2588C60.3925 90.404 60.618 90.5593 60.7964 90.7245C60.9749 90.8898 61.1031 91.0767 61.1826 91.2854C61.2604 91.494 61.301 91.7277 61.301 91.9881C61.301 92.4188 61.1907 92.781 60.9717 93.0764C60.7526 93.3719 60.4363 93.5989 60.021 93.7575C59.6073 93.916 59.1043 93.9945 58.5154 93.9945C58.3175 93.9945 58.1066 93.9845 57.8843 93.9628C57.662 93.9411 57.4349 93.911 57.2062 93.8726C56.9758 93.8343 56.7551 93.7875 56.5442 93.7358C56.3317 93.6824 56.1467 93.6239 55.9894 93.5622L56.1954 92.8428C56.3528 92.8995 56.5313 92.9546 56.7292 93.0063C56.9271 93.0597 57.1331 93.1048 57.3457 93.1432C57.5582 93.1816 57.7691 93.21 57.9784 93.2283C58.1877 93.2467 58.3807 93.255 58.5592 93.255C58.9567 93.255 59.2909 93.21 59.5602 93.1182C59.8311 93.0264 60.0356 92.8928 60.1767 92.7159C60.3179 92.539 60.3876 92.3253 60.3876 92.0716C60.3876 91.8946 60.3471 91.7377 60.2643 91.5959C60.1816 91.4556 60.055 91.3271 59.8847 91.2103C59.7127 91.0934 59.4921 90.9783 59.2228 90.8614C58.9518 90.7446 58.629 90.6227 58.251 90.4959C57.8875 90.369 57.5761 90.2338 57.3165 90.0886C57.0553 89.945 56.8444 89.7864 56.6789 89.6179C56.5134 89.4493 56.395 89.2623 56.3187 89.057C56.2441 88.8534 56.2052 88.6197 56.2052 88.3593C56.2052 88.0638 56.2636 87.7951 56.3804 87.5564C56.4972 87.316 56.6643 87.109 56.8833 86.9321C57.1023 86.7568 57.3781 86.62 57.7107 86.5248C58.0433 86.4297 58.4213 86.3829 58.8464 86.3829C59.0865 86.3829 59.3379 86.398 59.6008 86.4297C59.8636 86.4614 60.1134 86.5014 60.3454 86.5515C60.579 86.6016 60.777 86.6533 60.9408 86.7101L60.9425 86.7118Z" fill="#A21F1C"/>
<path d="M82.8151 38.5118L72.7208 43.2974L61.6384 29.0858L74.0138 8.33264H82.8151V38.5118Z" fill="#A21F1C"/>
<path d="M82.8152 56.2338V38.5118L72.7208 43.2975L82.8152 56.2338Z" fill="#E26820"/>
<path d="M61.6386 29.0859L45.4376 8.33264H74.014L61.6386 29.0859Z" fill="#E26820"/>
<path d="M57.1851 36.5522L61.6223 29.1042L45.4392 8.35101V33.2071H45.5463C49.8212 33.1888 53.809 34.4273 57.1851 36.5522Z" fill="#FDCC5A"/>
<path d="M45.5447 33.1888H45.4376V56.2338L57.1852 36.5522C53.7912 34.4273 49.8212 33.1888 45.5463 33.1888" fill="#A21F1C"/>
<path d="M65.8777 46.5507L72.7209 43.2974L61.6385 29.0858L57.1835 36.5522C60.9555 38.9174 63.9909 42.3927 65.8777 46.5507Z" fill="#E26820"/>
<path d="M57.1851 36.5522L45.4376 56.2521L65.8778 46.5507C63.991 42.3927 60.9555 38.9191 57.1835 36.5522" fill="#C8191C"/>
<path d="M72.7208 43.2975L65.8777 46.5508C67.2064 49.4886 67.9608 52.7786 67.9608 56.2522H82.8152L72.7208 43.2975Z" fill="#FDCC5A"/>
<path d="M45.4376 56.2338H67.9431C67.9431 52.7785 67.2065 49.4885 65.8778 46.5323L45.4376 56.2338Z" fill="#A21F1C"/>
<path d="M8.07617 38.5118L18.1705 43.2974L29.2545 29.0858L16.8775 8.33264H8.07617V38.5118Z" fill="#A21F1C"/>
<path d="M8.07617 56.2338V38.5118L18.1705 43.2975L8.07617 56.2338Z" fill="#E26820"/>
<path d="M29.2545 29.0859L45.4375 8.33264H16.8774L29.2545 29.0859Z" fill="#E26820"/>
<path d="M33.69 36.5522L29.2528 29.1042L45.4359 8.35101V33.2071H45.3288C41.0717 33.1888 37.084 34.4273 33.69 36.5522Z" fill="#C8191C"/>
<path d="M45.3288 33.1888H45.4359V56.2338L33.7062 36.5522C37.0823 34.4273 41.0701 33.1888 45.3272 33.1888" fill="#E26820"/>
<path d="M25.0152 46.5507L18.1721 43.2974L29.2545 29.0858L33.6916 36.5338C29.9196 38.9174 26.8842 42.3927 25.0169 46.5507" fill="#E26820"/>
<path d="M33.69 36.5522L45.4376 56.2521L25.0153 46.5507C26.8826 42.3927 29.918 38.9191 33.69 36.5522Z" fill="#C8191C"/>
<path d="M18.1705 43.2975L25.0136 46.5508C23.6849 49.4886 22.9305 52.7786 22.9305 56.2522H8.07617L18.1705 43.2975Z" fill="#FDCC5A"/>
<path d="M45.4376 56.2338H22.9321C22.9321 52.7785 23.6687 49.4885 25.0152 46.5323L45.4376 56.2338Z" fill="#A21F1C"/>
<path d="M33.1611 77.83H57.8162V78.7497H33.1611V77.83Z" fill="#A21F1C"/>
</g>
<defs>
<clipPath id="clip0_187_17">
<rect width="91" height="102" fill="white"/>
</clipPath>
</defs>
</svg>
